name C:/MyDriveSym/Projects/mobilecap/Data\Session20210820_0002\mocap\ForceDataProcessed\walkingTS2_forces.mot
datacolumns 19
datarows 17
range 0.36450000 0.37250000
endheader 
time	R_ground_force_vx	R_ground_force_vy	R_ground_force_vz	R_ground_force_px	R_ground_force_py	R_ground_force_pz	R_ground_torque_x	R_ground_torque_y	R_ground_torque_z	L_ground_force_vx	L_ground_force_vy	L_ground_force_vz	L_ground_force_px	L_ground_force_py	L_ground_force_pz	L_ground_torque_x	L_ground_torque_y	L_ground_torque_z	
          0.36450000	         23.07254100	        702.10070300	        -38.44020500	          0.19869100	          0.00600000	         -0.07499400	          0.00000000	         -0.33651400	          0.00000000	          0.00000000	          0.00000000	          0.00000000	          0.76733300	          0.00000000	         -0.21053800	          0.00000000	          0.00000000	          0.00000000	
          0.36500000	         23.19650700	        702.27240900	        -38.43464200	          0.19892300	          0.00600000	         -0.07501100	          0.00000000	         -0.35431000	          0.00000000	          0.00000000	          0.00000000	          0.00000000	          0.76733300	          0.00000000	         -0.21053800	          0.00000000	          0.00000000	          0.00000000	
          0.36550000	         23.32030000	        702.44527700	        -38.42908500	          0.19915500	          0.00600000	         -0.07502800	          0.00000000	         -0.37212900	          0.00000000	          0.00000000	          0.00000000	          0.00000000	          0.76733300	          0.00000000	         -0.21053800	          0.00000000	          0.00000000	          0.00000000	
          0.36600000	         23.44392600	        702.61931700	        -38.42353200	          0.19938800	          0.00600000	         -0.07504600	          0.00000000	         -0.38996900	          0.00000000	          0.00000000	          0.00000000	          0.00000000	          0.76733300	          0.00000000	         -0.21053800	          0.00000000	          0.00000000	          0.00000000	
          0.36650000	         23.56739500	        702.79454000	        -38.41798400	          0.19962200	          0.00600000	         -0.07506400	          0.00000000	         -0.40782900	          0.00000000	          0.00000000	          0.00000000	          0.00000000	          0.76733300	          0.00000000	         -0.21053800	          0.00000000	          0.00000000	          0.00000000	
          0.36700000	         23.69071400	        702.97095600	        -38.41244200	          0.19985600	          0.00600000	         -0.07508200	          0.00000000	         -0.42570900	          0.00000000	          0.00000000	          0.00000000	          0.00000000	          0.76733300	          0.00000000	         -0.21053800	          0.00000000	          0.00000000	          0.00000000	
          0.36750000	         23.81389200	        703.14857400	        -38.40690600	          0.20009000	          0.00600000	         -0.07510100	          0.00000000	         -0.44360700	          0.00000000	          0.00000000	          0.00000000	          0.00000000	          0.76733300	          0.00000000	         -0.21053800	          0.00000000	          0.00000000	          0.00000000	
          0.36800000	         23.93693600	        703.32740600	        -38.40137800	          0.20032500	          0.00600000	         -0.07512000	          0.00000000	         -0.46152200	          0.00000000	          0.00000000	          0.00000000	          0.00000000	          0.76733300	          0.00000000	         -0.21053800	          0.00000000	          0.00000000	          0.00000000	
          0.36850000	         24.05985500	        703.50746100	        -38.39585700	          0.20056000	          0.00600000	         -0.07513900	          0.00000000	         -0.47945500	          0.00000000	          0.00000000	          0.00000000	          0.00000000	          0.76733300	          0.00000000	         -0.21053800	          0.00000000	          0.00000000	          0.00000000	
          0.36900000	         24.18265600	        703.68874900	        -38.39034500	          0.20079600	          0.00600000	         -0.07515800	          0.00000000	         -0.49740300	          0.00000000	          0.00000000	          0.00000000	          0.00000000	          0.76733300	          0.00000000	         -0.21053800	          0.00000000	          0.00000000	          0.00000000	
          0.36950000	         24.30534800	        703.87128200	        -38.38484300	          0.20103300	          0.00600000	         -0.07517800	          0.00000000	         -0.51536700	          0.00000000	          0.00000000	          0.00000000	          0.00000000	          0.76733300	          0.00000000	         -0.21053800	          0.00000000	          0.00000000	          0.00000000	
          0.37000000	         24.42793900	        704.05507000	        -38.37935100	          0.20127000	          0.00600000	         -0.07519800	          0.00000000	         -0.53334400	          0.00000000	          0.00000000	          0.00000000	          0.00000000	          0.76733300	          0.00000000	         -0.21053800	          0.00000000	          0.00000000	          0.00000000	
          0.37050000	         24.55043700	        704.24012300	        -38.37387100	          0.20150700	          0.00600000	         -0.07521800	          0.00000000	         -0.55133500	          0.00000000	          0.00000000	          0.00000000	          0.00000000	          0.76733300	          0.00000000	         -0.21053800	          0.00000000	          0.00000000	          0.00000000	
          0.37100000	         24.67284900	        704.42645300	        -38.36840400	          0.20174500	          0.00600000	         -0.07523800	          0.00000000	         -0.56933700	          0.00000000	          0.00000000	          0.00000000	          0.00000000	          0.76733300	          0.00000000	         -0.21053800	          0.00000000	          0.00000000	          0.00000000	
          0.37150000	         24.79518500	        704.61406900	        -38.36295100	          0.20198300	          0.00600000	         -0.07525900	          0.00000000	         -0.58735100	          0.00000000	          0.00000000	          0.00000000	          0.00000000	          0.76733300	          0.00000000	         -0.21053800	          0.00000000	          0.00000000	          0.00000000	
          0.37200000	         24.91745200	        704.80298400	        -38.35751400	          0.20222200	          0.00600000	         -0.07528000	          0.00000000	         -0.60537600	          0.00000000	          0.00000000	          0.00000000	          0.00000000	          0.76733300	          0.00000000	         -0.21053800	          0.00000000	          0.00000000	          0.00000000	
          0.37250000	         25.03965700	        704.99320700	        -38.35209400	          0.20246100	          0.00600000	         -0.07530100	          0.00000000	         -0.62340900	          0.00000000	          0.00000000	          0.00000000	          0.00000000	          0.76733300	          0.00000000	         -0.21053800	          0.00000000	          0.00000000	          0.00000000	
